<?xml version="1.0" standalone="no"?>
<!DOCTYPE svg PUBLIC "-//W3C//DTD SVG 20010904//EN"
 "http://www.w3.org/TR/2001/REC-SVG-20010904/DTD/svg10.dtd">
<svg version="1.0" xmlns="http://www.w3.org/2000/svg"
 width="662.000000pt" height="767.000000pt" viewBox="0 0 662.000000 767.000000"
 preserveAspectRatio="xMidYMid meet">

<g transform="translate(0.000000,767.000000) scale(0.100000,-0.100000)"
fill="#000000" stroke="none">
<path d="M2950 7019 c-30 -5 -111 -13 -180 -18 -368 -28 -696 -207 -986 -539
-70 -80 -159 -205 -203 -288 -12 -21 -26 -46 -31 -54 -55 -85 -146 -326 -199
-530 -75 -286 -103 -532 -104 -890 -1 -331 14 -469 84 -765 16 -66 36 -181 44
-255 9 -74 29 -200 45 -280 16 -80 36 -181 44 -225 14 -72 29 -141 71 -320 42
-176 68 -277 114 -445 28 -102 60 -216 70 -255 39 -145 93 -320 103 -332 5 -7
26 -13 46 -15 36 -3 37 -4 40 -50 2 -25 8 -51 15 -56 16 -14 159 -23 357 -23
859 -1 2218 8 2228 14 7 5 12 30 12 63 l0 54 60 0 c74 0 77 5 113 150 40 162
103 429 116 490 6 30 29 141 52 245 22 105 50 237 60 295 57 310 69 376 85
495 10 77 31 172 50 234 113 347 149 588 147 986 -1 372 -28 597 -107 895
-153 577 -442 984 -873 1233 -186 107 -351 155 -573 167 -85 5 -182 14 -215
19 -71 13 -406 12 -485 0z m108 -855 c42 -9 94 -24 116 -35 44 -21 67 -24 82
-10 21 20 155 53 239 58 109 7 212 -8 322 -47 151 -52 178 -72 250 -185 309
-487 499 -1006 554 -1516 l12 -115 -47 -155 c-68 -219 -170 -488 -227 -599
-92 -177 -122 -206 -314 -299 -184 -89 -349 -152 -558 -211 -256 -71 -283 -71
-538 1 -261 73 -565 198 -705 290 -68 44 -107 95 -172 225 -101 202 -252 647
-252 742 0 70 25 252 55 402 87 436 261 853 531 1270 36 55 56 76 94 95 183
93 384 125 558 89z m1575 -2334 c-8 -85 -8 -85 -45 -105 -20 -11 -40 -16 -44
-12 -6 6 41 154 79 252 l12 30 3 -40 c1 -22 -1 -78 -5 -125z m-2773 1 c22 -63
39 -116 36 -118 -6 -7 -55 8 -65 20 -10 13 -28 226 -18 217 3 -3 24 -57 47
-119z m1190 -917 c129 -29 208 -30 325 -3 50 12 105 24 123 26 32 5 32 5 32
-39 0 -42 -6 -51 -136 -203 -74 -88 -143 -168 -153 -178 -17 -17 -23 -11 -162
149 -194 226 -181 207 -173 249 5 28 10 35 23 30 9 -4 63 -18 121 -31z m-627
-132 c55 -154 166 -358 274 -503 109 -148 337 -389 367 -389 5 0 33 -18 62
-40 58 -44 95 -50 134 -23 14 9 70 57 125 107 55 50 120 109 145 131 118 105
224 219 283 305 110 159 162 255 201 375 15 44 29 86 31 93 7 20 86 -77 153
-187 163 -268 233 -484 257 -798 6 -86 5 -93 -12 -93 -16 0 -18 9 -19 73 0 58
-5 81 -23 110 -29 48 -109 117 -141 123 -14 3 -33 18 -42 35 -20 33 -33 37
-47 11 -7 -13 -6 -27 5 -46 8 -16 14 -47 14 -70 0 -85 37 -165 99 -210 l31
-23 -278 -6 c-356 -9 -1136 -9 -1560 0 -305 6 -330 7 -309 22 63 44 106 130
107 214 0 28 8 62 17 78 16 26 16 31 2 44 -19 19 -45 11 -52 -16 -3 -10 -17
-23 -30 -28 -47 -18 -111 -72 -142 -119 -26 -41 -30 -55 -30 -119 l0 -73 -37
0 -36 0 4 98 c5 87 13 161 30 262 15 92 109 330 176 451 61 108 190 289 206
289 4 0 20 -35 35 -78z m1161 -178 c-59 -71 -135 -160 -167 -199 -33 -38 -78
-92 -101 -119 -175 -210 -242 -286 -254 -286 -4 0 -28 24 -53 53 l-46 52 215
245 c117 135 252 289 299 342 47 53 92 106 100 118 16 22 16 22 66 -28 l50
-50 -109 -128z m-584 56 c73 -85 142 -165 153 -177 23 -25 19 -34 -45 -107
l-35 -40 -39 52 c-45 60 -242 301 -261 320 -7 7 -13 16 -13 20 0 13 85 92 96
90 6 -2 71 -73 144 -158z m-163 -187 c101 -105 183 -198 183 -205 0 -22 -95
-123 -107 -115 -6 4 -38 42 -70 85 -88 117 -156 226 -215 345 -29 58 -29 61
-12 74 10 7 23 12 28 10 6 -2 93 -89 193 -194z m1003 177 c18 -9 17 -13 -14
-73 -90 -172 -257 -378 -411 -507 -27 -23 -78 -69 -111 -101 -66 -63 -90 -71
-119 -39 -14 16 -17 26 -9 45 13 35 611 685 630 685 8 0 24 -4 34 -10z m-1650
-679 c-25 -50 -5 -58 23 -10 23 42 31 31 17 -22 -19 -68 -84 -139 -130 -139
-17 0 -11 78 9 119 19 37 89 107 98 98 2 -3 -5 -23 -17 -46z m2138 -5 c44 -50
72 -166 40 -166 -49 0 -125 89 -134 156 -5 37 -5 38 11 19 9 -11 20 -27 25
-35 17 -30 23 1 7 35 -9 20 -17 38 -17 41 0 11 39 -18 68 -50z"/>
<path d="M2391 4875 c-104 -23 -189 -75 -242 -148 -53 -73 -25 -93 44 -31 54
49 147 91 235 106 100 17 211 -5 290 -57 37 -25 57 -34 65 -26 24 24 -82 124
-156 146 -72 22 -166 26 -236 10z"/>
<path d="M3950 4879 c-96 -19 -220 -104 -220 -151 0 -25 12 -23 64 12 92 63
196 81 314 56 93 -19 168 -54 219 -100 40 -35 73 -47 73 -25 0 26 -69 103
-125 140 -92 60 -224 88 -325 68z"/>
<path d="M2635 4430 c3 -5 14 -10 23 -10 9 0 43 -13 75 -29 31 -15 57 -25 57
-21 0 12 -45 49 -73 59 -36 14 -90 14 -82 1z"/>
<path d="M3795 4426 c-32 -14 -85 -66 -68 -66 6 0 16 6 22 13 6 8 37 22 68 32
32 11 62 23 68 27 15 13 -58 8 -90 -6z"/>
<path d="M2360 4324 c-123 -27 -248 -109 -294 -194 -24 -44 -34 -90 -20 -90 3
0 21 12 40 26 39 30 54 26 30 -8 -9 -12 -16 -35 -16 -50 l0 -28 63 51 c122 99
260 161 395 177 82 10 189 0 246 -23 21 -9 41 -13 44 -10 10 10 -74 80 -129
107 -114 57 -228 70 -359 42z m-110 -144 c0 -5 -4 -10 -10 -10 -5 0 -10 5 -10
10 0 6 5 10 10 10 6 0 10 -4 10 -10z m-32 -23 c4 -20 -25 -34 -40 -19 -15 15
-1 44 19 40 10 -2 19 -11 21 -21z"/>
<path d="M3910 4325 c-76 -22 -175 -74 -212 -112 -38 -39 -33 -48 14 -28 62
25 172 33 267 19 135 -21 231 -63 364 -163 37 -28 70 -51 72 -51 12 0 3 38
-15 68 -25 40 -9 41 41 1 35 -28 39 -29 39 -11 0 36 -37 106 -76 145 -52 52
-141 103 -212 122 -86 24 -216 28 -282 10z m375 -145 c3 -5 -1 -10 -9 -10 -9
0 -16 5 -16 10 0 6 4 10 9 10 6 0 13 -4 16 -10z m53 -23 c4 -20 -25 -34 -39
-20 -14 14 1 45 20 41 9 -2 17 -11 19 -21z"/>
<path d="M3250 3967 c0 -13 5 -48 11 -78 9 -47 8 -61 -10 -109 -11 -30 -17
-58 -13 -62 12 -12 80 39 97 72 8 16 15 39 15 52 0 30 -55 124 -80 138 -17 9
-20 8 -20 -13z"/>
<path d="M3007 3525 c-38 -8 -85 -19 -104 -26 -32 -10 -34 -13 -28 -42 11 -55
61 -153 100 -196 21 -22 67 -55 103 -73 62 -31 73 -33 172 -33 88 0 113 4 155
23 90 41 139 103 166 210 9 38 10 58 3 70 -6 9 -51 30 -100 46 -80 26 -105 29
-244 32 -106 2 -177 -1 -223 -11z m358 -21 c50 -8 94 -19 98 -24 5 -4 4 -16
-1 -27 -10 -18 -24 -19 -233 -17 -217 2 -224 3 -233 24 -14 30 0 38 79 49 109
13 192 12 290 -5z"/>
<path d="M2336 2645 c-36 -33 -76 -125 -76 -175 0 -36 21 -99 50 -152 6 -10
10 -34 10 -54 0 -33 2 -35 28 -32 21 2 28 9 30 30 2 15 19 53 37 84 55 91 58
177 9 261 -35 60 -55 69 -88 38z m69 -120 c14 -48 14 -57 -2 -106 -24 -70 -43
-76 -43 -13 0 54 -10 52 -20 -3 l-7 -38 -11 28 c-24 58 -10 143 31 195 16 20
35 -4 52 -63z"/>
<path d="M4072 2648 c-32 -35 -62 -115 -62 -166 0 -49 50 -172 70 -172 5 0 10
-15 10 -34 0 -38 19 -60 44 -50 10 4 16 18 16 39 0 18 12 56 26 83 21 40 26
64 26 120 0 79 -18 126 -64 173 -35 35 -39 35 -66 7z m65 -94 c25 -44 30 -116
11 -161 l-12 -28 -4 35 c-5 51 -20 59 -27 14 -10 -60 -12 -61 -29 -22 -9 21
-16 58 -16 82 0 52 27 129 44 123 6 -2 21 -21 33 -43z"/>
<path d="M2516 2374 c-22 -21 -20 -47 4 -69 44 -40 107 25 69 71 -15 19 -54
18 -73 -2z"/>
<path d="M3876 2368 c-21 -29 -20 -33 6 -58 27 -25 50 -26 71 -2 22 24 21 45
-1 65 -26 23 -58 21 -76 -5z"/>
<path d="M2132 2304 c-30 -21 -29 -59 3 -80 23 -15 27 -15 50 0 30 20 33 56 7
79 -23 21 -32 21 -60 1z"/>
<path d="M4278 2307 c-30 -23 -27 -61 6 -82 36 -24 66 -5 66 40 0 47 -36 68
-72 42z"/>
<path d="M2525 2185 c-3 -8 -7 -22 -10 -30 -2 -8 0 -40 5 -71 13 -76 64 -143
139 -180 31 -15 70 -38 88 -51 47 -34 84 -14 45 24 -13 12 -22 44 -30 97 -12
93 -44 146 -113 187 -57 34 -117 46 -124 24z m78 -54 c49 -19 96 -71 112 -124
8 -28 13 -52 11 -55 -2 -2 -20 14 -40 35 -38 41 -49 29 -15 -18 28 -40 7 -36
-40 6 -38 34 -71 103 -71 147 0 20 8 22 43 9z"/>
<path d="M3882 2190 c-18 -4 -41 -14 -50 -22 -9 -8 -25 -18 -34 -21 -9 -3 -33
-30 -53 -60 -28 -42 -38 -70 -45 -123 -5 -38 -12 -81 -15 -96 -10 -40 20 -49
48 -16 12 14 45 37 74 51 28 15 64 39 79 54 52 52 85 163 65 216 -11 28 -16
30 -69 17z m22 -58 c2 -4 0 -29 -6 -56 -7 -34 -22 -60 -52 -92 -52 -53 -77
-59 -47 -10 32 51 25 54 -20 11 l-41 -40 7 35 c13 63 63 128 115 149 32 12 38
13 44 3z"/>
<path d="M2417 1902 c-22 -24 -21 -45 1 -65 37 -34 82 -15 82 33 0 49 -51 68
-83 32z"/>
<path d="M3982 1908 c-7 -7 -12 -25 -12 -40 0 -34 41 -59 68 -41 21 12 28 59
11 79 -14 17 -51 18 -67 2z"/>
</g>
</svg>
